<?xml version="1.0" encoding="UTF-8" standalone="no"?>
<!DOCTYPE svg PUBLIC "-//W3C//DTD SVG 1.1//EN"
 "http://www.w3.org/Graphics/SVG/1.1/DTD/svg11.dtd">
<!-- Generated by graphviz version 2.43.0 (0)
 -->
<!-- Title: pipeline Pages: 1 -->
<svg width="600pt" height="567pt"
 viewBox="0.00 0.00 600.00 567.00" xmlns="http://www.w3.org/2000/svg" xmlns:xlink="http://www.w3.org/1999/xlink">
<g id="graph0" class="graph" transform="scale(1 1) rotate(0) translate(4 563)">
<title>pipeline</title>
<polygon fill="white" stroke="transparent" points="-4,4 -4,-563 596,-563 596,4 -4,4"/>
<g id="clust1" class="cluster">
<title>cluster_pre</title>
<polygon fill="white" stroke="#a7c8f0" points="213,-101 213,-285 404,-285 404,-101 213,-101"/>
<text text-anchor="middle" x="308.5" y="-269.8" font-family="Times,serif" font-size="14.00">Pre&#45;ordination ASE path</text>
</g>
<g id="clust2" class="cluster">
<title>cluster_post</title>
<polygon fill="white" stroke="#f4c88c" points="8,-101 8,-285 205,-285 205,-101 8,-101"/>
<text text-anchor="middle" x="106.5" y="-269.8" font-family="Times,serif" font-size="14.00">Post&#45;ordination ASE path</text>
</g>
<g id="clust3" class="cluster">
<title>cluster_truth</title>
<polygon fill="white" stroke="#cccccc" points="382,-315 382,-390 584,-390 584,-315 382,-315"/>
<text text-anchor="middle" x="483" y="-374.8" font-family="Times,serif" font-size="14.00">True simulation reference</text>
</g>
<!-- tree -->
<g id="node1" class="node">
<title>tree</title>
<path fill="none" stroke="black" d="M419.5,-559C419.5,-559 346.5,-559 346.5,-559 340.5,-559 334.5,-553 334.5,-547 334.5,-547 334.5,-535 334.5,-535 334.5,-529 340.5,-523 346.5,-523 346.5,-523 419.5,-523 419.5,-523 425.5,-523 431.5,-529 431.5,-535 431.5,-535 431.5,-547 431.5,-547 431.5,-553 425.5,-559 419.5,-559"/>
<text text-anchor="middle" x="383" y="-538.5" font-family="Helvetica,sans-Serif" font-size="10.00">Tree simulations</text>
</g>
<!-- discrete -->
<g id="node2" class="node">
<title>discrete</title>
<path fill="none" stroke="black" d="M347,-464C347,-464 285,-464 285,-464 279,-464 273,-458 273,-452 273,-452 273,-440 273,-440 273,-434 279,-428 285,-428 285,-428 347,-428 347,-428 353,-428 359,-434 359,-440 359,-440 359,-452 359,-452 359,-458 353,-464 347,-464"/>
<text text-anchor="middle" x="316" y="-443.5" font-family="Helvetica,sans-Serif" font-size="10.00">Discrete traits</text>
</g>
<!-- tree&#45;&gt;discrete -->
<g id="edge1" class="edge">
<title>tree&#45;&gt;discrete</title>
<path fill="none" stroke="black" d="M370.71,-522.94C360.57,-508.87 346.04,-488.69 334.5,-472.67"/>
<polygon fill="black" stroke="black" points="337.12,-470.33 328.44,-464.26 331.44,-474.42 337.12,-470.33"/>
</g>
<!-- continuous -->
<g id="node3" class="node">
<title>continuous</title>
<path fill="none" stroke="black" d="M490,-464C490,-464 414,-464 414,-464 408,-464 402,-458 402,-452 402,-452 402,-440 402,-440 402,-434 408,-428 414,-428 414,-428 490,-428 490,-428 496,-428 502,-434 502,-440 502,-440 502,-452 502,-452 502,-458 496,-464 490,-464"/>
<text text-anchor="middle" x="452" y="-443.5" font-family="Helvetica,sans-Serif" font-size="10.00">Continuous traits</text>
</g>
<!-- tree&#45;&gt;continuous -->
<g id="edge2" class="edge">
<title>tree&#45;&gt;continuous</title>
<path fill="none" stroke="black" d="M395.66,-522.94C406.09,-508.87 421.07,-488.69 432.95,-472.67"/>
<polygon fill="black" stroke="black" points="436.04,-474.38 439.19,-464.26 430.42,-470.21 436.04,-474.38"/>
</g>
<!-- ord_true -->
<g id="node4" class="node">
<title>ord_true</title>
<path fill="#eeeeee" stroke="black" d="M492,-359C492,-359 418,-359 418,-359 412,-359 406,-353 406,-347 406,-347 406,-335 406,-335 406,-329 412,-323 418,-323 418,-323 492,-323 492,-323 498,-323 504,-329 504,-335 504,-335 504,-347 504,-347 504,-353 498,-359 492,-359"/>
<text text-anchor="middle" x="455" y="-344" font-family="Helvetica,sans-Serif" font-size="10.00">Ordination (true)</text>
<text text-anchor="middle" x="455" y="-333" font-family="Helvetica,sans-Serif" font-size="10.00">(from full traits)</text>
</g>
<!-- discrete&#45;&gt;ord_true -->
<g id="edge3" class="edge">
<title>discrete&#45;&gt;ord_true</title>
<path fill="none" stroke="black" d="M338.95,-427.99C362.09,-410.85 397.97,-384.26 423.71,-365.19"/>
<polygon fill="black" stroke="black" points="426.06,-367.8 432.01,-359.03 421.89,-362.18 426.06,-367.8"/>
</g>
<!-- fossil -->
<g id="node5" class="node">
<title>fossil</title>
<path fill="none" stroke="black" d="M346,-359C346,-359 278,-359 278,-359 272,-359 266,-353 266,-347 266,-347 266,-335 266,-335 266,-329 272,-323 278,-323 278,-323 346,-323 346,-323 352,-323 358,-329 358,-335 358,-335 358,-347 358,-347 358,-353 352,-359 346,-359"/>
<text text-anchor="middle" x="312" y="-338.5" font-family="Helvetica,sans-Serif" font-size="10.00">Fossil sampling</text>
</g>
<!-- discrete&#45;&gt;fossil -->
<g id="edge5" class="edge">
<title>discrete&#45;&gt;fossil</title>
<path fill="none" stroke="black" d="M315.34,-427.99C314.72,-412.04 313.78,-387.91 313.06,-369.27"/>
<polygon fill="black" stroke="black" points="316.55,-368.89 312.66,-359.03 309.55,-369.16 316.55,-368.89"/>
</g>
<!-- continuous&#45;&gt;ord_true -->
<g id="edge4" class="edge">
<title>continuous&#45;&gt;ord_true</title>
<path fill="none" stroke="black" d="M452.5,-427.99C452.96,-412.04 453.66,-387.91 454.21,-369.27"/>
<polygon fill="black" stroke="black" points="457.71,-369.13 454.5,-359.03 450.71,-368.93 457.71,-369.13"/>
</g>
<!-- continuous&#45;&gt;fossil -->
<g id="edge6" class="edge">
<title>continuous&#45;&gt;fossil</title>
<path fill="none" stroke="black" d="M426.09,-427.88C410.26,-417.25 389.73,-403.16 372,-390 361.54,-382.24 350.33,-373.41 340.46,-365.46"/>
<polygon fill="black" stroke="black" points="342.51,-362.62 332.54,-359.04 338.1,-368.05 342.51,-362.62"/>
</g>
<!-- disparity -->
<g id="node10" class="node">
<title>disparity</title>
<path fill="#f8f8f3" stroke="black" d="M406.5,-36C406.5,-36 221.5,-36 221.5,-36 215.5,-36 209.5,-30 209.5,-24 209.5,-24 209.5,-12 209.5,-12 209.5,-6 215.5,0 221.5,0 221.5,0 406.5,0 406.5,0 412.5,0 418.5,-6 418.5,-12 418.5,-12 418.5,-24 418.5,-24 418.5,-30 412.5,-36 406.5,-36"/>
<text text-anchor="middle" x="314" y="-21" font-family="Helvetica,sans-Serif" font-size="10.00">Disparity error</text>
<text text-anchor="middle" x="314" y="-10" font-family="Helvetica,sans-Serif" font-size="10.00">(compare estimated vs true ordination)</text>
</g>
<!-- ord_true&#45;&gt;disparity -->
<g id="edge11" class="edge">
<title>ord_true&#45;&gt;disparity</title>
<path fill="none" stroke="black" stroke-dasharray="5,2" d="M457.71,-322.75C464.05,-276.01 475.1,-145.06 415,-65 407.42,-54.91 397.11,-46.97 385.97,-40.74"/>
<polygon fill="black" stroke="black" points="387.38,-37.53 376.88,-36.11 384.2,-43.77 387.38,-37.53"/>
<text text-anchor="middle" x="493.5" y="-177.8" font-family="Times,serif" font-size="14.00">reference</text>
</g>
<!-- pre_ase -->
<g id="node6" class="node">
<title>pre_ase</title>
<path fill="#d8eafe" stroke="black" d="M375,-254C375,-254 253,-254 253,-254 247,-254 241,-248 241,-242 241,-242 241,-230 241,-230 241,-224 247,-218 253,-218 253,-218 375,-218 375,-218 381,-218 387,-224 387,-230 387,-230 387,-242 387,-242 387,-248 381,-254 375,-254"/>
<text text-anchor="middle" x="314" y="-239" font-family="Helvetica,sans-Serif" font-size="10.00">Ancestral state estimation</text>
<text text-anchor="middle" x="314" y="-228" font-family="Helvetica,sans-Serif" font-size="10.00">(pre&#45;ordination)</text>
</g>
<!-- fossil&#45;&gt;pre_ase -->
<g id="edge7" class="edge">
<title>fossil&#45;&gt;pre_ase</title>
<path fill="none" stroke="black" d="M312.33,-322.99C312.64,-307.04 313.11,-282.91 313.47,-264.27"/>
<polygon fill="black" stroke="black" points="316.97,-264.1 313.67,-254.03 309.98,-263.96 316.97,-264.1"/>
</g>
<!-- ord_sampled -->
<g id="node8" class="node">
<title>ord_sampled</title>
<path fill="#ffeacc" stroke="black" d="M185.5,-254C185.5,-254 60.5,-254 60.5,-254 54.5,-254 48.5,-248 48.5,-242 48.5,-242 48.5,-230 48.5,-230 48.5,-224 54.5,-218 60.5,-218 60.5,-218 185.5,-218 185.5,-218 191.5,-218 197.5,-224 197.5,-230 197.5,-230 197.5,-242 197.5,-242 197.5,-248 191.5,-254 185.5,-254"/>
<text text-anchor="middle" x="123" y="-233.5" font-family="Helvetica,sans-Serif" font-size="10.00">Ordination (sampled traits)</text>
</g>
<!-- fossil&#45;&gt;ord_sampled -->
<g id="edge9" class="edge">
<title>fossil&#45;&gt;ord_sampled</title>
<path fill="none" stroke="black" d="M276.31,-322.81C254.86,-312.28 227.13,-298.3 203,-285 188.46,-276.98 172.73,-267.69 159.1,-259.42"/>
<polygon fill="black" stroke="black" points="160.84,-256.38 150.48,-254.16 157.19,-262.36 160.84,-256.38"/>
</g>
<!-- ord_est_pre -->
<g id="node7" class="node">
<title>ord_est_pre</title>
<path fill="#d8eafe" stroke="black" d="M366,-145C366,-145 262,-145 262,-145 256,-145 250,-139 250,-133 250,-133 250,-121 250,-121 250,-115 256,-109 262,-109 262,-109 366,-109 366,-109 372,-109 378,-115 378,-121 378,-121 378,-133 378,-133 378,-139 372,-145 366,-145"/>
<text text-anchor="middle" x="314" y="-130" font-family="Helvetica,sans-Serif" font-size="10.00">Ordination (estimated)</text>
<text text-anchor="middle" x="314" y="-119" font-family="Helvetica,sans-Serif" font-size="10.00">from pre&#45;ASE</text>
</g>
<!-- pre_ase&#45;&gt;ord_est_pre -->
<g id="edge8" class="edge">
<title>pre_ase&#45;&gt;ord_est_pre</title>
<path fill="none" stroke="black" d="M314,-217.81C314,-200.96 314,-175.02 314,-155.34"/>
<polygon fill="black" stroke="black" points="317.5,-155.15 314,-145.15 310.5,-155.15 317.5,-155.15"/>
</g>
<!-- ord_est_pre&#45;&gt;disparity -->
<g id="edge12" class="edge">
<title>ord_est_pre&#45;&gt;disparity</title>
<path fill="none" stroke="black" d="M314,-108.81C314,-91.96 314,-66.02 314,-46.34"/>
<polygon fill="black" stroke="black" points="317.5,-46.15 314,-36.15 310.5,-46.15 317.5,-46.15"/>
<text text-anchor="middle" x="359.5" y="-68.8" font-family="Times,serif" font-size="14.00">compare pre</text>
</g>
<!-- post_ase -->
<g id="node9" class="node">
<title>post_ase</title>
<path fill="#ffeacc" stroke="black" d="M184,-145C184,-145 62,-145 62,-145 56,-145 50,-139 50,-133 50,-133 50,-121 50,-121 50,-115 56,-109 62,-109 62,-109 184,-109 184,-109 190,-109 196,-115 196,-121 196,-121 196,-133 196,-133 196,-139 190,-145 184,-145"/>
<text text-anchor="middle" x="123" y="-130" font-family="Helvetica,sans-Serif" font-size="10.00">Ancestral state estimation</text>
<text text-anchor="middle" x="123" y="-119" font-family="Helvetica,sans-Serif" font-size="10.00">(post&#45;ordination)</text>
</g>
<!-- ord_sampled&#45;&gt;post_ase -->
<g id="edge10" class="edge">
<title>ord_sampled&#45;&gt;post_ase</title>
<path fill="none" stroke="black" d="M123,-217.81C123,-200.96 123,-175.02 123,-155.34"/>
<polygon fill="black" stroke="black" points="126.5,-155.15 123,-145.15 119.5,-155.15 126.5,-155.15"/>
</g>
<!-- post_ase&#45;&gt;disparity -->
<g id="edge13" class="edge">
<title>post_ase&#45;&gt;disparity</title>
<path fill="none" stroke="black" d="M143.87,-108.83C160.35,-95.77 184.28,-77.92 207,-65 223.31,-55.72 241.86,-47.13 258.88,-39.94"/>
<polygon fill="black" stroke="black" points="260.26,-43.15 268.16,-36.09 257.58,-36.69 260.26,-43.15"/>
<text text-anchor="middle" x="255.5" y="-68.8" font-family="Times,serif" font-size="14.00">compare post</text>
</g>
</g>
</svg>
